<?xml version="1.0" encoding="UTF-8" standalone="no"?>
<!DOCTYPE svg PUBLIC "-//W3C//DTD SVG 1.1//EN"
 "http://www.w3.org/Graphics/SVG/1.1/DTD/svg11.dtd">
<!-- Generated by graphviz version 2.40.1 (20161225.0304)
 -->
<!-- Title: dependencies Pages: 1 -->
<svg width="1223pt" height="284pt"
 viewBox="0.00 0.00 1223.00 284.00" xmlns="http://www.w3.org/2000/svg" xmlns:xlink="http://www.w3.org/1999/xlink">
<g id="graph0" class="graph" transform="scale(1 1) rotate(0) translate(4 280)">
<title>dependencies</title>
<polygon fill="#ffffff" stroke="transparent" points="-4,4 -4,-280 1219,-280 1219,4 -4,4"/>
<text text-anchor="start" x="586.5091" y="-42.4" font-family="sans-serif" font-weight="bold" font-size="14.00" fill="#000000">Legend</text>
<polygon fill="#ffffb3" stroke="transparent" points="373.5,-10 373.5,-30 393.5,-30 393.5,-10 373.5,-10"/>
<text text-anchor="start" x="397.129" y="-15.4" font-family="sans-serif" font-size="14.00" fill="#000000"> &#160;Declarations</text>
<polygon fill="#8dd3c7" stroke="transparent" points="486.5,-10 486.5,-30 506.5,-30 506.5,-10 486.5,-10"/>
<text text-anchor="start" x="510.2251" y="-15.4" font-family="sans-serif" font-size="14.00" fill="#000000"> &#160;Module</text>
<polygon fill="#80b1d3" stroke="transparent" points="572.5,-10 572.5,-30 592.5,-30 592.5,-10 572.5,-10"/>
<text text-anchor="start" x="596.2812" y="-15.4" font-family="sans-serif" font-size="14.00" fill="#000000"> &#160;Bootstrap</text>
<polygon fill="#fdb462" stroke="transparent" points="669.5,-10 669.5,-30 689.5,-30 689.5,-10 669.5,-10"/>
<text text-anchor="start" x="693.1732" y="-15.4" font-family="sans-serif" font-size="14.00" fill="#000000"> &#160;Providers</text>
<polygon fill="#fb8072" stroke="transparent" points="765.5,-10 765.5,-30 785.5,-30 785.5,-10 765.5,-10"/>
<text text-anchor="start" x="789.2258" y="-15.4" font-family="sans-serif" font-size="14.00" fill="#000000"> &#160;Exports</text>
<g id="clust1" class="cluster">
<title>cluster_AppModule</title>
<polygon fill="none" stroke="#000000" stroke-dasharray="1,5" points="8,-70 8,-268 1207,-268 1207,-70 8,-70"/>
</g>
<g id="clust2" class="cluster">
<title>cluster_AppModule_declarations</title>
<polygon fill="none" stroke="#000000" points="744,-78 744,-130 1199,-130 1199,-78 744,-78"/>
</g>
<g id="clust6" class="cluster">
<title>cluster_AppModule_imports</title>
<polygon fill="none" stroke="#000000" points="466,-78 466,-130 736,-130 736,-78 466,-78"/>
</g>
<g id="clust8" class="cluster">
<title>cluster_AppModule_bootstrap</title>
<polygon fill="none" stroke="#000000" points="623,-208 623,-260 747,-260 747,-208 623,-208"/>
</g>
<g id="clust9" class="cluster">
<title>cluster_AppModule_providers</title>
<polygon fill="none" stroke="#000000" points="16,-78 16,-130 458,-130 458,-78 16,-78"/>
</g>
<!-- AppComponent -->
<g id="node1" class="node">
<title>AppComponent</title>
<polygon fill="#ffffb3" stroke="#000000" points="1190.9399,-122 1085.0601,-122 1085.0601,-86 1190.9399,-86 1190.9399,-122"/>
<text text-anchor="middle" x="1138" y="-99.8" font-family="Times,serif" font-size="14.00" fill="#000000">AppComponent</text>
</g>
<!-- AppModule -->
<g id="node4" class="node">
<title>AppModule</title>
<polygon fill="#8dd3c7" stroke="#000000" points="726.6571,-187 723.6571,-191 702.6571,-191 699.6571,-187 643.3429,-187 643.3429,-151 726.6571,-151 726.6571,-187"/>
<text text-anchor="middle" x="685" y="-164.8" font-family="Times,serif" font-size="14.00" fill="#000000">AppModule</text>
</g>
<!-- AppComponent&#45;&gt;AppModule -->
<g id="edge1" class="edge">
<title>AppComponent&#45;&gt;AppModule</title>
<path fill="none" stroke="#000000" d="M1138,-122.2921C1138,-144.2057 1138,-178 1138,-178 1138,-178 736.8052,-178 736.8052,-178"/>
<polygon fill="#000000" stroke="#000000" points="736.8052,-174.5001 726.8052,-178 736.8051,-181.5001 736.8052,-174.5001"/>
</g>
<!-- YoutubePlayerComponent -->
<g id="node2" class="node">
<title>YoutubePlayerComponent</title>
<polygon fill="#ffffb3" stroke="#000000" points="1067.8075,-122 902.1925,-122 902.1925,-86 1067.8075,-86 1067.8075,-122"/>
<text text-anchor="middle" x="985" y="-99.8" font-family="Times,serif" font-size="14.00" fill="#000000">YoutubePlayerComponent</text>
</g>
<!-- YoutubePlayerComponent&#45;&gt;AppModule -->
<g id="edge2" class="edge">
<title>YoutubePlayerComponent&#45;&gt;AppModule</title>
<path fill="none" stroke="#000000" d="M985,-122.1061C985,-141.3391 985,-169 985,-169 985,-169 736.7137,-169 736.7137,-169"/>
<polygon fill="#000000" stroke="#000000" points="736.7137,-165.5001 726.7137,-169 736.7137,-172.5001 736.7137,-165.5001"/>
</g>
<!-- YoutubeSafeUrlPipe -->
<g id="node3" class="node">
<title>YoutubeSafeUrlPipe</title>
<polygon fill="#ffffb3" stroke="#000000" points="884.1303,-122 751.8697,-122 751.8697,-86 884.1303,-86 884.1303,-122"/>
<text text-anchor="middle" x="818" y="-99.8" font-family="Times,serif" font-size="14.00" fill="#000000">YoutubeSafeUrlPipe</text>
</g>
<!-- YoutubeSafeUrlPipe&#45;&gt;AppModule -->
<g id="edge3" class="edge">
<title>YoutubeSafeUrlPipe&#45;&gt;AppModule</title>
<path fill="none" stroke="#000000" d="M818,-122.027C818,-138.3976 818,-160 818,-160 818,-160 736.7171,-160 736.7171,-160"/>
<polygon fill="#000000" stroke="#000000" points="736.7172,-156.5001 726.7171,-160 736.7171,-163.5001 736.7172,-156.5001"/>
</g>
<!-- AppComponent  -->
<g id="node7" class="node">
<title>AppComponent </title>
<polygon fill="#80b1d3" stroke="#000000" points="739.439,-252 630.561,-252 630.561,-216 739.439,-216 739.439,-252"/>
<text text-anchor="middle" x="685" y="-229.8" font-family="Times,serif" font-size="14.00" fill="#000000">AppComponent </text>
</g>
<!-- AppModule&#45;&gt;AppComponent  -->
<g id="edge6" class="edge">
<title>AppModule&#45;&gt;AppComponent </title>
<path fill="none" stroke="#000000" stroke-dasharray="1,5" d="M685,-187.1061C685,-187.1061 685,-205.991 685,-205.991"/>
<polygon fill="#000000" stroke="#000000" points="681.5001,-205.9909 685,-215.991 688.5001,-205.991 681.5001,-205.9909"/>
</g>
<!-- CoreModule -->
<g id="node5" class="node">
<title>CoreModule</title>
<polygon fill="#8dd3c7" stroke="#000000" points="728.2619,-122 725.2619,-126 704.2619,-126 701.2619,-122 641.7381,-122 641.7381,-86 728.2619,-86 728.2619,-122"/>
<text text-anchor="middle" x="685" y="-99.8" font-family="Times,serif" font-size="14.00" fill="#000000">CoreModule</text>
</g>
<!-- CoreModule&#45;&gt;AppModule -->
<g id="edge4" class="edge">
<title>CoreModule&#45;&gt;AppModule</title>
<path fill="none" stroke="#000000" d="M685,-122.1061C685,-122.1061 685,-140.991 685,-140.991"/>
<polygon fill="#000000" stroke="#000000" points="681.5001,-140.9909 685,-150.991 688.5001,-140.991 681.5001,-140.9909"/>
</g>
<!-- SettingsSidenavModule -->
<g id="node6" class="node">
<title>SettingsSidenavModule</title>
<polygon fill="#8dd3c7" stroke="#000000" points="623.766,-122 620.766,-126 599.766,-126 596.766,-122 474.234,-122 474.234,-86 623.766,-86 623.766,-122"/>
<text text-anchor="middle" x="549" y="-99.8" font-family="Times,serif" font-size="14.00" fill="#000000">SettingsSidenavModule</text>
</g>
<!-- SettingsSidenavModule&#45;&gt;AppModule -->
<g id="edge5" class="edge">
<title>SettingsSidenavModule&#45;&gt;AppModule</title>
<path fill="none" stroke="#000000" d="M549,-122.027C549,-138.3976 549,-160 549,-160 549,-160 633.0858,-160 633.0858,-160"/>
<polygon fill="#000000" stroke="#000000" points="633.0858,-163.5001 643.0858,-160 633.0858,-156.5001 633.0858,-163.5001"/>
</g>
<!-- YoutubeAPIService -->
<g id="node8" class="node">
<title>YoutubeAPIService</title>
<ellipse fill="#fdb462" stroke="#000000" cx="361" cy="-104" rx="88.6043" ry="18"/>
<text text-anchor="middle" x="361" y="-99.8" font-family="Times,serif" font-size="14.00" fill="#000000">YoutubeAPIService</text>
</g>
<!-- YoutubeAPIService&#45;&gt;AppModule -->
<g id="edge7" class="edge">
<title>YoutubeAPIService&#45;&gt;AppModule</title>
<path fill="none" stroke="#000000" d="M361,-122.1061C361,-141.3391 361,-169 361,-169 361,-169 633.306,-169 633.306,-169"/>
<polygon fill="#000000" stroke="#000000" points="633.306,-172.5001 643.306,-169 633.3059,-165.5001 633.306,-172.5001"/>
</g>
<!-- YoutubeInteractionService -->
<g id="node9" class="node">
<title>YoutubeInteractionService</title>
<ellipse fill="#fdb462" stroke="#000000" cx="139" cy="-104" rx="115.1474" ry="18"/>
<text text-anchor="middle" x="139" y="-99.8" font-family="Times,serif" font-size="14.00" fill="#000000">YoutubeInteractionService</text>
</g>
<!-- YoutubeInteractionService&#45;&gt;AppModule -->
<g id="edge8" class="edge">
<title>YoutubeInteractionService&#45;&gt;AppModule</title>
<path fill="none" stroke="#000000" d="M139,-122.2921C139,-144.2057 139,-178 139,-178 139,-178 633.0629,-178 633.0629,-178"/>
<polygon fill="#000000" stroke="#000000" points="633.0629,-181.5001 643.0629,-178 633.0629,-174.5001 633.0629,-181.5001"/>
</g>
</g>
</svg>
